<svg width="27" height="26" viewBox="0 0 27 26" fill="none" xmlns="http://www.w3.org/2000/svg">
<path d="M26.1416 4.07129C25.8789 3.76637 25.5007 3.59093 25.1018 3.59093H6.09458L5.82637 1.97022C5.71634 1.29911 5.14278 0.806213 4.47019 0.806213H1.37544C0.614822 0.806213 0 1.4286 0 2.19857C0 2.96854 0.614822 3.59093 1.37544 3.59093H3.30519L5.86351 19.1352C5.87451 19.1979 5.90615 19.2494 5.9254 19.3079C5.94741 19.3817 5.96529 19.4513 5.99968 19.5181C6.04369 19.61 6.10283 19.688 6.16473 19.7673C6.20737 19.8216 6.24588 19.8759 6.2954 19.9233C6.37517 19.9985 6.46733 20.0514 6.56086 20.1043C6.61312 20.1335 6.65851 20.1725 6.71491 20.1948C6.87446 20.2602 7.04226 20.2992 7.21969 20.2992C7.22107 20.2992 22.3509 20.2992 22.3509 20.2992C23.1115 20.2992 23.7264 19.6768 23.7264 18.9069C23.7264 18.1369 23.1115 17.5145 22.3509 17.5145H8.38607L8.15774 16.1221H23.7264C24.4113 16.1221 24.9918 15.6125 25.0881 14.9275L26.4635 5.181C26.5199 4.78 26.4016 4.37483 26.1416 4.07129ZM23.5159 6.37564L23.1239 9.16036H18.2246V6.37564H23.5159ZM16.8492 6.37564V9.16036H12.7228V6.37564H16.8492ZM16.8492 10.5527V13.3374H12.7228V10.5527H16.8492ZM11.3474 6.37564V9.16036H7.22107C7.14817 9.16036 7.08215 9.18124 7.0175 9.20213L6.5526 6.37564H11.3474ZM7.24032 10.5527H11.3474V13.3374H7.69835L7.24032 10.5527ZM18.2246 13.3374V10.5527H22.9259L22.5339 13.3374H18.2246Z" fill="white"/>
<path d="M9.28424 25.8686C10.4237 25.8686 11.3474 24.9335 11.3474 23.7801C11.3474 22.6266 10.4237 21.6915 9.28424 21.6915C8.14478 21.6915 7.22107 22.6266 7.22107 23.7801C7.22107 24.9335 8.14478 25.8686 9.28424 25.8686Z" fill="white"/>
<path d="M21.6631 25.8686C22.8026 25.8686 23.7263 24.9335 23.7263 23.7801C23.7263 22.6266 22.8026 21.6915 21.6631 21.6915C20.5237 21.6915 19.6 22.6266 19.6 23.7801C19.6 24.9335 20.5237 25.8686 21.6631 25.8686Z" fill="white"/>
</svg>
