<svg data-name="Группа 1" xmlns="http://www.w3.org/2000/svg" width="14.875" height="14.875"><path d="M7.437.003a7.436 7.436 0 107.436 7.436A7.436 7.436 0 007.437.003zm3.215 8.85H7.437a.514.514 0 01-.514-.514v-5.25a.515.515 0 011.029 0v4.736h2.7a.514.514 0 01.004 1.028z" fill-rule="evenodd" fill="#f6a937"/><path data-name="Rectangle 1 copy" d="M7.27 1.875h.025a.833.833 0 01.833.833v5.334a.833.833 0 01-.833.833H7.27a.833.833 0 01-.833-.833V2.708a.833.833 0 01.833-.833zm-.044 5.421h4.422a.789.789 0 01.789.789.789.789 0 01-.789.79H7.226a.789.789 0 01-.789-.79.789.789 0 01.789-.789z" fill="#fff" fill-rule="evenodd"/></svg>