<svg width="56" height="57" viewBox="0 0 56 57" fill="none" xmlns="http://www.w3.org/2000/svg">
<path d="M55.3592 53.1983L39.5598 37.1167C46.7582 28.2021 46.2684 14.9686 38.0886 6.64286C29.3868 -2.21429 15.2281 -2.21429 6.52632 6.64286C-2.17544 15.5 -2.17544 29.9115 6.52632 38.7687C14.7039 47.0922 27.7035 47.5962 36.4655 40.2662L52.265 56.3477C53.1194 57.2174 54.5046 57.2174 55.3591 56.3477C56.2136 55.4779 56.2136 54.068 55.3592 53.1983ZM34.9944 35.6192C27.9988 42.7398 16.6162 42.7397 9.62054 35.6192C2.62492 28.4987 2.62492 16.9128 9.62054 9.79222C16.6159 2.67201 27.9986 2.67146 34.9944 9.79222C41.9901 16.9128 41.9901 28.4987 34.9944 35.6192Z" fill="#E1A711"/>
<path d="M33.0203 20.479H24.4956V11.8021C24.4956 10.5721 23.516 9.57507 22.3076 9.57507C21.0993 9.57507 20.1197 10.5721 20.1197 11.8021V20.479H11.595C10.3866 20.479 9.40707 21.476 9.40707 22.706C9.40707 23.9359 10.3866 24.933 11.595 24.933H20.1197V33.6099C20.1197 34.8399 21.0993 35.8369 22.3076 35.8369C23.516 35.8369 24.4956 34.8399 24.4956 33.6099V24.933H33.0203C34.2286 24.933 35.2082 23.9359 35.2082 22.706C35.2082 21.476 34.2286 20.479 33.0203 20.479Z" fill="#E1A711"/>
</svg>
