<svg width="25" height="25" viewBox="0 0 25 25" fill="none" xmlns="http://www.w3.org/2000/svg">
<g clip-path="url(#clip0)">
<path d="M14.7094 11.0714C15.9299 12.2919 15.9299 14.2706 14.7094 15.491C13.489 16.7114 11.5103 16.7114 10.2899 15.491C9.06947 14.2706 9.06947 12.2919 10.2899 11.0714C11.5103 9.85102 13.489 9.85102 14.7094 11.0714" fill="white"/>
<path d="M21.8749 4.68724H19.7157L18.1524 1.56213H6.84608L5.28426 4.68878L3.12813 4.69262C1.40919 4.69569 0.00987809 6.09648 0.00839381 7.81619L0 20.312C0 22.0355 1.40156 23.4378 3.12511 23.4378H21.8749C23.5985 23.4378 25.0001 22.0363 25.0001 20.3127V7.8123C25 6.0888 23.5984 4.68724 21.8749 4.68724V4.68724ZM12.4996 19.5314C9.05329 19.5314 6.2494 16.7276 6.2494 13.2812C6.2494 9.8349 9.05329 7.03101 12.4996 7.03101C15.9459 7.03101 18.7498 9.8349 18.7498 13.2812C18.7498 16.7276 15.9459 19.5314 12.4996 19.5314V19.5314Z" fill="white"/>
</g>
<defs>
<clipPath id="clip0">
<rect width="25" height="25" fill="white"/>
</clipPath>
</defs>
</svg>
