<svg xmlns="http://www.w3.org/2000/svg" width="40.009" height="51.197" viewBox="0 0 400.094 511.969">
  <defs>
    <style>
      .cls-1 {
        fill-rule: evenodd;
      }
    </style>
  </defs>
  <path class="cls-1" d="M172.4,399.929c-19.985,18.444-47.625,22.575-72.141,10.786a65.722,65.722,0,0,1-22.2-17.2l-33.382,73.74a6.414,6.414,0,0,0,7.569,8.818l24.3-6.756A30.975,30.975,0,0,1,112.76,485.67l10.976,22.684a6.421,6.421,0,0,0,11.626-.148l53.1-117.3A39.853,39.853,0,0,0,172.4,399.929Zm185.925,67.328-33.381-73.74a65.7,65.7,0,0,1-22.2,17.2c-24.517,11.789-52.157,7.658-72.141-10.786a39.851,39.851,0,0,0-16.065-9.021l53.1,117.3a6.421,6.421,0,0,0,11.626.148l10.975-22.684a30.976,30.976,0,0,1,36.213-16.351l24.3,6.756A6.415,6.415,0,0,0,358.322,467.257Zm26.222-259.476a65.031,65.031,0,0,1-19.583-85.7c10.063-17.49,4.825-34.773-3.432-45.116s-23.965-19.284-43.275-13.379a65.19,65.19,0,0,1-79.3-38.139C231.539,6.686,214.743,0,201.5,0s-30.038,6.686-37.455,25.45a65.189,65.189,0,0,1-79.3,38.139c-19.312-5.9-35.017,3.039-43.276,13.379s-13.494,27.624-3.431,45.116a65.032,65.032,0,0,1-19.584,85.7C1.79,219.181-1,237.021,1.947,249.916s13.21,27.76,33.177,30.807A65.1,65.1,0,0,1,90,349.447c-1.47,20.12,10.759,33.421,22.69,39.161s29.969,6.994,44.8-6.7a65.224,65.224,0,0,1,88.012,0c14.836,13.693,32.873,12.438,44.805,6.7s24.158-19.04,22.689-39.16a65.1,65.1,0,0,1,54.876-68.725c19.967-3.047,30.23-17.912,33.177-30.807S401.209,219.179,384.544,207.781ZM201.5,335.907c-72.663,0-131.779-59.041-131.779-131.613S128.836,72.681,201.5,72.681s131.78,59.042,131.78,131.613S274.164,335.907,201.5,335.907Zm0-238.687c-59.116,0-107.209,48.034-107.209,107.074S142.382,311.368,201.5,311.368s107.21-48.033,107.21-107.074S260.615,97.22,201.5,97.22Zm54.942,96.693-66.723,48.673a12.295,12.295,0,0,1-17.3-2.856L152.46,211.349a12.28,12.28,0,0,1,20.107-14.1L185.333,215.4l56.617-41.3A12.275,12.275,0,1,1,256.441,193.913Z" transform="translate(-0.906)"/>
</svg>
