<svg xmlns="http://www.w3.org/2000/svg" width="430" height="512" viewBox="0 0 430 512">
  <defs>
    <style>
      .cls-1 {
        fill-rule: evenodd;
      }
    </style>
  </defs>
  <path class="cls-1" d="M120.807,140.165a140.65,140.65,0,0,0-20.693-5.686c-37.061-7.191-74.571.928-100.115,21.24,16.109,28.4,47.868,49.956,84.933,57.148a138.015,138.015,0,0,0,46.156,1.159,189.519,189.519,0,0,1,31.706-25.775A148.825,148.825,0,0,1,120.807,140.165Zm84.918-61.59C194.707,42.433,169.967,13.071,140.07,0,122.554,27.548,118.4,65.732,129.419,101.875c9.219,30.248,28.054,55.739,51.473,70.913-4.731-15.5-10.84-35.315-15.551-50.521a11.515,11.515,0,1,1,21.994-6.827c1.354,4.37,9.224,29.789,15.452,50.191C213.549,140.053,214.878,108.612,205.725,78.575ZM264.753,181.2c-91.118,0-165.248,74.2-165.248,165.4S173.636,512,264.753,512,430,437.8,430,346.6,355.87,181.2,264.753,181.2Zm0,286c-66.441,0-120.491-54.1-120.491-120.6S198.314,226,264.753,226s120.491,54.1,120.491,120.6S331.192,467.2,264.753,467.2Zm0-218.155A97.554,97.554,0,1,0,362.217,346.6,97.62,97.62,0,0,0,264.753,249.049Zm33.711,123.675H254.088a11.2,11.2,0,0,1-11.211-11.444V298.569a11.514,11.514,0,1,1,23.027,0v51.107h32.559A11.524,11.524,0,0,1,298.464,372.724Z"/>
</svg>
