<svg width="20" height="20" viewBox="0 0 20 20" fill="none" xmlns="http://www.w3.org/2000/svg">
<g clip-path="url(#clip0)">
<path d="M19.4752 15.4294L15.4271 12.7298C14.9134 12.3899 14.2248 12.5018 13.845 12.9867L12.6659 14.5028C12.5143 14.7027 12.2389 14.7606 12.0196 14.6388L11.7953 14.5152C11.0518 14.1099 10.1266 13.6053 8.26254 11.7406C6.39848 9.87587 5.8929 8.94999 5.4876 8.2078L5.36461 7.98349C5.24116 7.76431 5.29802 7.48767 5.49791 7.33492L7.013 6.15611C7.49777 5.77628 7.60975 5.08787 7.27031 4.574L4.57071 0.525928C4.22283 0.00264614 3.52489 -0.15444 2.98633 0.169301L1.29358 1.18614C0.761702 1.49883 0.371486 2.00524 0.204753 2.59925C-0.404805 4.82025 0.0537597 8.65335 5.70027 14.3005C10.1919 18.7918 13.5358 19.9997 15.8341 19.9997C16.3631 20.0019 16.8899 19.9331 17.4006 19.7951C17.9947 19.6285 18.5012 19.2383 18.8137 18.7062L19.8315 17.0145C20.1557 16.4758 19.9987 15.7775 19.4752 15.4294ZM19.2572 16.6725L18.2417 18.3653C18.0173 18.7493 17.6531 19.0316 17.2252 19.1532C15.1748 19.7161 11.5927 19.2498 6.17184 13.829C0.750962 8.40808 0.284741 4.82627 0.847666 2.77559C0.969367 2.34722 1.25206 1.98247 1.63653 1.75774L3.32929 0.742224C3.56297 0.60162 3.86589 0.669774 4.01684 0.896849L5.48331 3.09851L6.71414 4.94457C6.86154 5.16746 6.81311 5.46621 6.60283 5.63115L5.08739 6.80996C4.62621 7.1626 4.49451 7.80067 4.77845 8.30708L4.89878 8.52572C5.32474 9.30693 5.85431 10.2788 7.78769 12.2118C9.72108 14.1449 10.6926 14.6745 11.4735 15.1004L11.6924 15.221C12.1988 15.505 12.8369 15.3733 13.1895 14.9121L14.3684 13.3967C14.5333 13.1865 14.832 13.1381 15.0549 13.2854L19.1027 15.985C19.3299 16.1358 19.398 16.4389 19.2572 16.6725Z" fill="white"/>
<path d="M11.3328 3.33506C14.4605 3.33854 16.9951 5.8732 16.9986 9.0009C16.9986 9.18497 17.1478 9.33417 17.3319 9.33417C17.5159 9.33417 17.6651 9.18497 17.6651 9.0009C17.6613 5.50521 14.8284 2.67235 11.3328 2.66852C11.1487 2.66852 10.9995 2.81771 10.9995 3.00179C10.9995 3.18586 11.1487 3.33506 11.3328 3.33506Z" fill="white"/>
<path d="M11.3328 5.33475C13.3565 5.33714 14.9965 6.97713 14.9989 9.00089C14.9989 9.18496 15.1481 9.33416 15.3322 9.33416C15.5162 9.33416 15.6654 9.18496 15.6654 9.00089C15.6627 6.60914 13.7245 4.67095 11.3328 4.66821C11.1487 4.66821 10.9995 4.81741 10.9995 5.00148C10.9995 5.18556 11.1487 5.33475 11.3328 5.33475Z" fill="white"/>
<path d="M11.3328 7.33445C12.2526 7.33554 12.9981 8.08098 12.9992 9.00088C12.9992 9.18496 13.1484 9.33415 13.3325 9.33415C13.5165 9.33415 13.6657 9.18496 13.6657 9.00088C13.6642 7.71303 12.6206 6.66935 11.3328 6.66791C11.1487 6.66791 10.9995 6.8171 10.9995 7.00118C10.9995 7.18525 11.1487 7.33445 11.3328 7.33445Z" fill="white"/>
</g>
<defs>
<clipPath id="clip0">
<rect width="20" height="20" fill="white"/>
</clipPath>
</defs>
</svg>
