<svg xmlns="http://www.w3.org/2000/svg" width="11" height="15"><path data-name="Forma 1" d="M10.74 3.733a4.447 4.447 0 00-.258-.6A5.4 5.4 0 005.426 0 5.269 5.269 0 000 4.653v.64c0 .027.01.266.024.387.2 1.493 1.453 3.08 2.39 4.573 1.007 1.6 2.053 3.173 3.089 4.746.639-1.026 1.275-2.067 1.9-3.066.17-.293.367-.587.538-.867.113-.186.33-.373.429-.546C9.378 8.787 11 7.04 11 5.32v-.707a5.051 5.051 0 00-.26-.88zM5.47 6.946a1.952 1.952 0 01-1.869-1.253 1.649 1.649 0 01-.053-.467v-.413a1.81 1.81 0 011.983-1.706 1.95 1.95 0 012.014 1.92 2 2 0 01-2.075 1.92z" fill="#f6a937" fill-rule="evenodd"/></svg>