<svg xmlns="http://www.w3.org/2000/svg" width="15" height="15"><path d="M11.4 9.922a1.052 1.052 0 00-1.589 0c-.371.368-.742.737-1.108 1.111a.219.219 0 01-.306.056c-.24-.131-.5-.237-.727-.381A11.521 11.521 0 014.892 8.18a6.618 6.618 0 01-1-1.595.229.229 0 01.057-.294c.371-.359.733-.727 1.1-1.1a1.055 1.055 0 000-1.626c-.29-.293-.58-.58-.871-.874s-.6-.6-.9-.9a1.057 1.057 0 00-1.588 0c-.375.368-.734.746-1.115 1.108a1.814 1.814 0 00-.568 1.22 5.167 5.167 0 00.4 2.226 13.527 13.527 0 002.4 4A14.856 14.856 0 007.73 14.2a7.135 7.135 0 002.725.793 2 2 0 001.714-.653c.318-.356.677-.68 1.014-1.021a1.061 1.061 0 00.007-1.616q-.89-.893-1.79-1.781zm-.6-2.488l1.152-.2A5.171 5.171 0 007.587 3l-.163 1.158a3.995 3.995 0 013.384 3.277zm1.8-5.007A8.494 8.494 0 007.74 0l-.163 1.158a7.409 7.409 0 016.271 6.077l1.152-.2a8.558 8.558 0 00-2.391-4.607z" fill="#f6a937" fill-rule="evenodd"/></svg>