<svg width="36" height="36" viewBox="0 0 36 36" fill="none" xmlns="http://www.w3.org/2000/svg">
<g clip-path="url(#clip0)">
<path d="M1.01761 26.4204L6.04152 21.3965C7.83577 19.6022 10.886 20.32 11.6037 22.6524C12.142 24.2673 13.9362 25.1645 15.5511 24.8055C19.1396 23.9084 23.984 19.2434 24.8812 15.4754C25.4195 13.8605 24.3429 12.0663 22.7281 11.5281C20.3955 10.8104 19.6778 7.76014 21.4721 5.96589L26.496 0.941983C27.9314 -0.313994 30.0845 -0.313994 31.3405 0.941983L34.7496 4.35106C38.1586 7.93957 34.3907 17.4491 25.9577 25.8821C17.5247 34.3151 8.0152 38.2625 4.42669 34.6739L1.01761 31.2649C-0.238434 29.8295 -0.238434 27.6763 1.01761 26.4204Z" fill="white"/>
</g>
<defs>
<clipPath id="clip0">
<rect width="36" height="36" fill="white" transform="matrix(-1 0 0 1 36 0)"/>
</clipPath>
</defs>
</svg>
