<svg xmlns="http://www.w3.org/2000/svg" viewBox="0 0 100 125"><path fill="none" d="M29.7 85.2h-5.3l15.1-57.7c.3-1.2.1-2.4-.7-3.5-.8-1-1.9-1.6-3.2-1.6-1.8 0-3.3 1.2-3.7 2.9L16.1 85.2H9.5c-3 0-5.4 2.4-5.4 5.4v2.7h31v-2.8c-.1-2.9-2.5-5.3-5.4-5.3zm5-59.1c.1-.4.4-.7.9-.7.4 0 .7.1.9.4.2.3.3.6.2.9L21.4 84.8h-2.2l15.5-58.7zm-25.2 62h14.3c1.3 0 2.3 1 2.4 2.2H7c.2-1.2 1.2-2.2 2.5-2.2zm19.6 2.3c0-.8-.2-1.6-.6-2.2h1.1c1.3 0 2.3 1 2.4 2.2h-2.9z"/><path fill="none" d="M69.9 50.9h-14v2.4H52c-.5-1.7-1.9-3-3.5-3.5.1-5.5 1.5-10 3.9-12.5 1.4-1.4 3.2-2.2 5.3-2.2 5.1 0 9.3 6.2 9.3 13.7h3c0-9.2-5.6-16.7-12.2-16.7-2.9 0-5.4 1-7.4 3-3.9 4-4.7 10.6-4.8 14.6-1.7.5-3 1.8-3.5 3.5h-7.5l-.5 5.2 4.2 34.9h32.3l1.3-10.4h1.6c2.2 0 4-1.8 4-4V58.4c-.2-4.1-3.5-7.5-7.6-7.5zm-2.1 39.5h-27l-.3-2.4h14v-3H40.2l-1.7-14.1H53v-3H38.1l-.4-3H53v-3H37.3l-.4-3.5.2-2.2h7.6v-1.5c0-1.3 1-2.2 2.2-2.2 1.3 0 2.2 1 2.2 2.2v1.5h6.7v22.7c0 2.2 1.8 4 4 4h8.9l-.9 7.5zm6.6-11.5c0 .6-.4 1-1 1h-9.1v-14h-3v14H60c-.6 0-1-.4-1-1V53.8h11.1c2.5 0 4.5 2 4.5 4.5l-.2 20.6z"/></svg>