<svg width="65" height="65" fill="none" xmlns="http://www.w3.org/2000/svg"><path d="M59.287.127H5.713A5.72 5.72 0 000 5.84v45.703a5.72 5.72 0 005.713 5.713h32.5v5.713a1.904 1.904 0 003.809 0V43.926h3.935v19.043a1.904 1.904 0 003.809 0V43.926h3.681v19.043a1.904 1.904 0 003.809 0v-5.713h2.031A5.72 5.72 0 0065 51.543V5.84A5.72 5.72 0 0059.287.127zM5.713 3.936h53.574c1.05 0 1.904.854 1.904 1.904v9.521H3.81V5.84c0-1.05.854-1.904 1.904-1.904zm37.962 36.181l4.06-6.088 4.058 6.088h-8.118zm15.612 13.33h-2.031V42.022c0-.376-.111-.744-.32-1.057L49.32 29.54a1.905 1.905 0 00-3.17 0l-7.616 11.426a1.9 1.9 0 00-.32 1.056v11.426h-32.5a1.906 1.906 0 01-1.904-1.904V19.17h57.38v32.373c0 1.05-.854 1.904-1.904 1.904z" fill="#9D9D9D"/><path d="M24.883 38.213H9.648a1.904 1.904 0 00-1.904 1.904v7.617c0 1.052.853 1.905 1.904 1.905h15.235a1.904 1.904 0 001.904-1.905v-7.617a1.904 1.904 0 00-1.904-1.904zm-1.904 7.617H11.553v-3.808h11.425v3.808zm20.947-22.851H9.648a1.904 1.904 0 000 3.808h34.278a1.904 1.904 0 000-3.808zm-7.617 7.617H9.649a1.904 1.904 0 000 3.808h26.66a1.904 1.904 0 000-3.808zM9.648 11.553a1.904 1.904 0 100-3.809 1.904 1.904 0 000 3.809zm7.618 0a1.904 1.904 0 100-3.809 1.904 1.904 0 000 3.809zm7.617 0a1.904 1.904 0 100-3.809 1.904 1.904 0 000 3.809zm19.043 0h11.426a1.904 1.904 0 000-3.809H43.926a1.904 1.904 0 000 3.809z" fill="#9D9D9D"/></svg>