<svg width="65" height="65" fill="none" xmlns="http://www.w3.org/2000/svg"><path d="M40.117 43.926a1.27 1.27 0 10.001 2.54 1.27 1.27 0 000-2.54z" fill="#9D9D9D"/><path d="M58.652 0H6.348A6.355 6.355 0 000 6.348v38.847c0 3.5 2.848 6.348 6.348 6.348h19.804v5.84h-1.27c-1.694 0-3.288.66-4.487 1.86a6.307 6.307 0 00-1.86 4.487c0 .702.569 1.27 1.27 1.27h25.39a1.27 1.27 0 001.27-1.27c0-3.5-2.848-6.347-6.348-6.347h-1.27v-5.84h19.805c3.5 0 6.348-2.848 6.348-6.348V6.348C65 2.848 62.153 0 58.652 0zM6.348 2.54h52.304c2.1 0 3.809 1.707 3.809 3.808v32.5h-5.84v-29.2a1.27 1.27 0 00-1.27-1.27H45.196a1.27 1.27 0 00-1.27 1.27v29.2h-6.354a116.564 116.564 0 00-.102-3.864c-.222-5.17-.729-8.633-.992-10.157a6.348 6.348 0 001.733-8.28l-4.4-7.621a1.27 1.27 0 00-2.199 0l-4.402 7.621c-1.51 2.619-.974 6.01 1.397 8.012-.275 1.519-.83 5.106-1.07 10.423-.057 1.27-.093 2.564-.107 3.866h-6.355V19.805c0-.202-.047-.385-.125-.548l-.009-.02L15.862 9.08a1.27 1.27 0 00-2.271 0L8.513 19.237l-.008.02c-.08.164-.126.35-.126.548v19.043h-5.84v-32.5c0-2.1 1.708-3.809 3.809-3.809zm40.117 36.308v-27.93h7.617v2.539h-1.27a1.27 1.27 0 100 2.54h1.27v3.808h-1.27a1.27 1.27 0 100 2.539h1.27v3.808h-1.27a1.27 1.27 0 100 2.54h1.27v5.078h-1.27a1.27 1.27 0 100 2.539h1.27v2.539h-7.617zM32.71 26.065c.461 0 .92-.053 1.37-.153.235 1.51.581 4.182.786 7.858H30.14c.215-3.673.578-6.387.828-7.948a6.36 6.36 0 001.742.243zm0-2.54c-2.902 0-4.773-3.157-3.302-5.708L32.71 12.1l3.3 5.716c1.465 2.54-.38 5.71-3.3 5.71zM30.025 36.31h4.954c.026.834.045 1.682.054 2.539h-5.065c.01-.851.029-1.7.057-2.54zm-14.029 2.539V21.074h2.54v17.774h-2.54zm-5.078 0V21.074h2.539v17.774h-2.539zm.785-20.313l3.024-6.048 3.024 6.048h-6.049zm32.005 43.926H21.29c.187-.53.491-1.014.9-1.423a3.785 3.785 0 012.693-1.116h15.234a3.815 3.815 0 013.591 2.539zm-7.4-5.078h-7.617v-5.84h7.618v5.84zm22.344-8.38H6.348a3.813 3.813 0 01-3.809-3.808v-3.808h59.922v3.808c0 2.1-1.709 3.809-3.809 3.809z" fill="#9D9D9D"/><path d="M35.04 43.926h-7.618a1.27 1.27 0 100 2.539h7.617a1.27 1.27 0 100-2.54z" fill="#9D9D9D"/></svg>