<svg width="65" height="65" fill="none" xmlns="http://www.w3.org/2000/svg"><path d="M61.284 61.672l-2.876-16.835a4.792 4.792 0 00-3.358-3.802l-7.756-2.34a8.627 8.627 0 00-2.232-5.1 8.644 8.644 0 00-3.77-2.412c.245-.273.472-.544.681-.81 1.845-2.346 2.832-4.93 3.084-6.693h.598a2.825 2.825 0 002.822-2.823V19.41c0-1.038-.584-1.98-1.463-2.468v-3.479a.952.952 0 00-1.903 0v3.906a5.862 5.862 0 00-1.4.426 4.878 4.878 0 00-.306.151v-7.67a3.848 3.848 0 00-3.844-3.844h-2.627c-.906 0-1.791.316-2.493.89l-.258.21a2.665 2.665 0 01-3.366 0l-.258-.21a3.95 3.95 0 00-2.493-.89H25.44a3.848 3.848 0 00-3.843 3.843v7.671a4.851 4.851 0 00-.307-.151 5.863 5.863 0 00-1.4-.426V7.493a5.596 5.596 0 015.59-5.59h14.042a5.596 5.596 0 015.59 5.59V8.99a.952.952 0 101.903 0V7.493C47.014 3.362 43.652 0 39.521 0H25.48c-4.133 0-7.494 3.362-7.494 7.493v9.45a2.842 2.842 0 00-1.463 2.468v1.446a2.825 2.825 0 002.823 2.823h.598c.251 1.763 1.239 4.347 3.083 6.693.209.265.436.537.681.809a8.682 8.682 0 00-6.002 7.513l-7.756 2.34a4.791 4.791 0 00-3.358 3.802l-1.168 6.837a.952.952 0 101.877.32l1.168-6.836a2.898 2.898 0 012.031-2.3l7.174-2.165v1.883c-1.645.303-3.044 1.432-3.62 2.997-.153.416-.248.85-.283 1.293l-.693 8.898c-.052.67.18 1.338.636 1.832a2.427 2.427 0 001.776.776h1.187a.952.952 0 100-1.904H15.49a.516.516 0 01-.514-.555l.693-8.9c.021-.267.079-.53.171-.782.401-1.089 1.484-1.826 2.695-1.834l.157-.002h.021c1.177 0 2.219.667 2.658 1.705.123.29.198.598.223.914l.694 8.899a.518.518 0 01-.515.555h-1.186a.952.952 0 100 1.904h1.186a2.422 2.422 0 002.412-2.607l-.693-8.9a4.82 4.82 0 00-.368-1.508c-.627-1.48-1.968-2.509-3.547-2.787v-2.451l3.272-.987c.298.627.888 1.982 2.056 4.902a791.676 791.676 0 014.08 10.488 1261.17 1261.17 0 012.624 6.924.952.952 0 001.782 0 1237.176 1237.176 0 012.658-7.015 792.393 792.393 0 014.043-10.391c1.17-2.925 1.76-4.28 2.059-4.908l3.272.987v5.622a4.933 4.933 0 00-3.985 4.834 4.93 4.93 0 004.925 4.925 4.93 4.93 0 004.925-4.925 4.933 4.933 0 00-3.962-4.83v-5.052l7.174 2.165a2.899 2.899 0 012.032 2.3l2.875 16.834a.93.93 0 01-.21.769.931.931 0 01-.722.335H6.525a.93.93 0 01-.723-.335.93.93 0 01-.21-.769l.95-5.555a.952.952 0 10-1.877-.32l-.949 5.555c-.141.83.089 1.673.631 2.316A2.844 2.844 0 006.524 65h51.951c.842 0 1.635-.369 2.178-1.012a2.844 2.844 0 00.63-2.316zM45.122 19.308c.507-.126.914-.124.919-.124a.972.972 0 00.465-.11.902.902 0 01.067.337v1.446a.92.92 0 01-.918.919h-.533v-2.468zm-25.244 2.468h-.533a.92.92 0 01-.918-.919v-1.446c0-.118.025-.232.067-.337a.97.97 0 00.465.11c.008.001.413 0 .92.125v2.467zm1.904 1.067v-2.5a1.333 1.333 0 001.718-1.28v-8.788c0-1.07.87-1.94 1.939-1.94h2.627c.468 0 .926.164 1.288.46l.258.21a4.575 4.575 0 002.888 1.031c1.05 0 2.075-.366 2.888-1.03l.258-.21a2.04 2.04 0 011.288-.46h2.627c1.07 0 1.94.87 1.94 1.94v8.786a1.333 1.333 0 001.717 1.281v2.5c0 1.39-.96 4.089-2.741 6.353a12.546 12.546 0 01-2.367 2.325c-1.446 1.07-3.305 1.888-5.61 1.888s-4.164-.819-5.61-1.888a12.557 12.557 0 01-2.366-2.324c-1.781-2.265-2.742-4.964-2.742-6.354zm16.954 15.379l-6.236 4.66-6.236-4.66c.618-.786.965-1.795.965-2.695v-1.535a10.982 10.982 0 005.271 1.321c2.055 0 3.805-.532 5.271-1.32v1.534c0 .9.346 1.909.965 2.695zm-14.06-1.063a2.603 2.603 0 00-1.674-.062l-3.288.992c.556-2.735 2.777-4.911 5.611-5.333v2.77c0 .598-.266 1.215-.65 1.633zm2.583 7.641l-.005-.013a289.491 289.491 0 00-.169-.425l-.137-.346-.01-.024c-.14-.355-.277-.695-.407-1.02l-.029-.072a217.083 217.083 0 00-.257-.637l-.03-.076-.186-.455-.049-.12-.07-.17c-.024-.062-.05-.122-.074-.181l-.027-.068-.022-.052-.313-.756-.003-.005-.154-.367-.076-.18 5.363 4.01-2.24.951a.602.602 0 00-.013.005l-.935.398-.157-.397zm2.271 5.829a971.463 971.463 0 00-1.419-3.66l.355-.15 1.452 1.687-.388 2.123zm2.988 7.736a.945.945 0 00-.097-.16c-.43-1.137-.976-2.575-1.58-4.158l.889-4.866h1.54l.89 4.866a1257.57 1257.57 0 00-1.642 4.318zm1.11-11.087h-2.256l-1.067-1.24 2.195-.933 2.194.933-1.067 1.24zm2.41 1.882c-.19.49-.38.98-.568 1.469l-.388-2.123 1.451-1.687.356.15c-.272.695-.555 1.424-.852 2.19zm3.645-9.147l-.146.347-.02.047c-.049.118-.1.238-.151.364l-.01.025-.139.334-.025.063-.032.078-.064.154-.079.193-.026.064a188.035 188.035 0 00-.34.84l-.042.104-.11.273-.032.078-.402 1.006-.013.035-.137.343-.026.065a204.913 204.913 0 00-.146.37l-.158.401-.937-.398a.32.32 0 01-.01-.004l-2.242-.953 5.363-4.008-.076.18zm2.315-2.916h-.003a2.6 2.6 0 00-1.67.062c-.384-.418-.65-1.035-.65-1.632v-2.773a6.71 6.71 0 015.615 5.336l-3.292-.993zm7.387 13.478a3.025 3.025 0 01-3.022 3.021 3.025 3.025 0 01-3.021-3.021 3.025 3.025 0 013.021-3.022 3.025 3.025 0 013.022 3.022z" fill="#9D9D9D"/></svg>