<svg width="85" height="12" fill="none" xmlns="http://www.w3.org/2000/svg"><g clip-path="url(#clip0)"><path d="M2.766 11.582c-.29.149-.618-.112-.56-.444l.623-3.547L.187 5.074c-.247-.236-.119-.666.212-.713l3.674-.522L5.71.594a.385.385 0 01.695 0l1.638 3.245 3.673.522c.331.047.46.477.213.713L9.287 7.59l.623 3.547c.058.332-.27.593-.56.444L6.057 9.89l-3.292 1.692h.001z" fill="#FFCE31"/></g><g clip-path="url(#clip1)"><path d="M20.766 11.582c-.29.149-.618-.112-.56-.444l.623-3.547-2.642-2.517c-.247-.236-.119-.666.212-.713l3.674-.522L23.71.594a.385.385 0 01.695 0l1.638 3.245 3.673.522c.331.047.46.477.213.713L27.287 7.59l.623 3.547c.058.332-.27.593-.56.444L24.057 9.89l-3.292 1.692h.001z" fill="#FFCE31"/></g><g clip-path="url(#clip2)"><path d="M38.766 11.582c-.29.149-.618-.112-.56-.444l.623-3.547-2.642-2.517c-.247-.236-.119-.666.212-.713l3.674-.522L41.71.594a.385.385 0 01.695 0l1.638 3.245 3.673.522c.331.047.46.477.213.713L45.287 7.59l.623 3.547c.058.332-.27.593-.56.444L42.057 9.89l-3.292 1.692h.001z" fill="#FFCE31"/></g><g clip-path="url(#clip3)"><path d="M56.766 11.582c-.29.149-.618-.112-.56-.444l.623-3.547-2.642-2.517c-.247-.236-.119-.666.212-.713l3.674-.522L59.71.594a.385.385 0 01.695 0l1.638 3.245 3.673.522c.331.047.46.477.213.713L63.287 7.59l.623 3.547c.058.332-.27.593-.56.444L60.057 9.89l-3.292 1.692h.001z" fill="#FFCE31"/></g><g clip-path="url(#clip4)"><path d="M74.766 11.582c-.29.149-.618-.112-.56-.444l.623-3.547-2.642-2.517c-.247-.236-.119-.666.212-.713l3.674-.522L77.71.594a.385.385 0 01.695 0l1.638 3.245 3.673.522c.331.047.46.477.213.713L81.287 7.59l.623 3.547c.058.332-.27.593-.56.444L78.057 9.89l-3.292 1.692h.001z" fill="#FFCE31"/></g><defs><clipPath id="clip0"><path fill="#fff" transform="translate(.057)" d="M0 0h12v12H0z"/></clipPath><clipPath id="clip1"><path fill="#fff" transform="translate(18.057)" d="M0 0h12v12H0z"/></clipPath><clipPath id="clip2"><path fill="#fff" transform="translate(36.057)" d="M0 0h12v12H0z"/></clipPath><clipPath id="clip3"><path fill="#fff" transform="translate(54.057)" d="M0 0h12v12H0z"/></clipPath><clipPath id="clip4"><path fill="#fff" transform="translate(72.057)" d="M0 0h12v12H0z"/></clipPath></defs></svg>