<?xml version="1.0" encoding="UTF-8"?>
<!DOCTYPE svg PUBLIC "-//W3C//DTD SVG 1.1//EN" "http://www.w3.org/Graphics/SVG/1.1/DTD/svg11.dtd">
<!-- Creator: CorelDRAW 2017 -->
<svg xmlns="http://www.w3.org/2000/svg" xml:space="preserve" width="110px" height="156px" version="1.1" style="shape-rendering:geometricPrecision; text-rendering:geometricPrecision; image-rendering:optimizeQuality; fill-rule:evenodd; clip-rule:evenodd"
viewBox="0 0 110 156"
 xmlns:xlink="http://www.w3.org/1999/xlink">
 <defs>
  <style type="text/css">
   <![CDATA[
    .fil0 {fill:#0D8FE3}
   ]]>
  </style>
 </defs>
 <g id="Слой_x0020_1">
  <metadata id="CorelCorpID_0Corel-Layer"/>
  <path class="fil0" d="M47 21l1 1 0 2c0,0 0,1 1,1l1 -1 1 1c0,0 1,0 1,-1l0 -2 1 -1c0,0 0,-1 0,-1l-2 0 -1 -1c0,0 -1,0 -1,0l-1 1 -2 0c0,0 -1,1 0,1z"/>
  <path class="fil0" d="M43 26l0 -9 13 0 0 9 -13 0zm12 -14l0 -1c0,0 0,-1 -1,-1l0 0c0,0 -1,0 -1,1l0 1 -8 0 0 -1c0,0 0,-1 -1,-1l0 0c0,0 -1,0 -1,1l0 1 -1 0c-1,0 -2,1 -2,2l0 12c0,1 1,2 2,2l14 0c1,0 2,-1 2,-2l0 -12c0,-1 -1,-2 -2,-2l-1 0z"/>
  <path class="fil0" d="M108 72c0,-26 -19,-48 -44,-52l0 5c0,4 -3,7 -7,7l-14 0c-4,0 -7,-3 -7,-7l0 -2c-19,8 -33,27 -33,49 0,29 23,52 52,52 29,0 52,-23 52,-52z"/>
 </g>
</svg>
