<?xml version="1.0" encoding="UTF-8"?>
<!DOCTYPE svg PUBLIC "-//W3C//DTD SVG 1.1//EN" "http://www.w3.org/Graphics/SVG/1.1/DTD/svg11.dtd">
<!-- Creator: CorelDRAW X8 -->
<svg xmlns="http://www.w3.org/2000/svg" xml:space="preserve" width="110px" height="122px" version="1.1" style="shape-rendering:geometricPrecision; text-rendering:geometricPrecision; image-rendering:optimizeQuality; fill-rule:evenodd; clip-rule:evenodd"
viewBox="0 0 110 122"
 xmlns:xlink="http://www.w3.org/1999/xlink">
 <defs>
  <style type="text/css">
   <![CDATA[
    .fil0 {fill:#0D8FE3}
   ]]>
  </style>
 </defs>
 <g id="Слой_x0020_1">
  <metadata id="CorelCorpID_0Corel-Layer"/>
  <path class="fil0" d="M34 24c-18,8 -30,26 -30,46 0,28 22,50 50,50 28,0 50,-22 50,-50 0,-19 -11,-36 -27,-44 0,0 0,0 0,0 -1,2 -3,4 -5,4 -2,1 -4,3 -4,5 0,0 0,0 0,0 0,1 0,2 0,2l1 -2 5 11 6 1 -4 1 3 3 -8 -2 -1 0 0 0 0 0 0 0 -1 -1 0 0c0,0 -1,0 -1,0 0,0 -1,0 -1,1l-1 2c0,1 -1,1 -2,1 -1,0 -2,0 -2,-1l-6 -12 -5 13c-1,1 -2,1 -3,1 -1,0 -2,0 -2,-1l-1 -3c0,0 -1,0 -1,0 0,0 0,0 0,0l-3 0c0,1 0,1 0,1 -2,0 -3,-2 -3,-3 0,0 0,-1 0,-1l5 -9c0,-1 0,-1 0,-2 0,0 0,0 0,0 0,-2 -2,-4 -4,-5 -3,0 -5,-2 -5,-4 0,-1 0,-1 0,-2z"/>
  <path class="fil0" d="M52 40l0 0zm-9 0l-3 7c0,0 0,0 0,0 0,0 0,1 1,1 0,0 0,0 0,0l2 -1c0,0 1,0 1,0 1,0 2,1 3,2l1 2c0,0 0,0 0,0 1,0 1,0 1,0l5 -12c-1,1 -1,1 -2,1 -1,2 -4,2 -7,1 0,0 -1,-1 -2,-1z"/>
  <path class="fil0" d="M58 38l5 12c0,0 1,0 1,0 0,0 0,0 1,0l1 -2c0,-1 1,-2 2,-2 1,0 1,0 1,0l2 1 1 -1 -3 -7c-1,0 -1,1 -2,1 -3,2 -5,1 -7,-1 -1,0 -1,0 -2,-1z"/>
  <path class="fil0" d="M60 38c1,2 3,2 4,1 1,0 2,-2 2,-4 0,0 0,0 0,0 0,-3 3,-6 6,-6 2,-1 3,-2 3,-3 0,-1 0,-1 0,-1 0,-3 -4,-5 -4,-9 0,-1 1,-2 1,-3 1,-2 1,-3 0,-4 -1,-1 -3,-2 -4,-2 -1,0 -2,1 -2,1 -3,0 -5,-2 -6,-4 -2,-2 -3,-3 -5,-3 -1,0 -3,1 -3,3 -1,2 -4,4 -6,4 -1,0 -2,-1 -2,-1 -2,0 -4,1 -4,2 -1,1 -2,2 -1,4 1,1 1,2 1,3 0,2 -1,4 -3,5 0,1 -1,2 -1,2 0,1 0,2 0,3 0,1 1,2 3,3 3,0 5,3 5,6 0,0 0,0 0,0 0,2 1,4 3,4 1,1 3,1 4,-1 1,-1 3,-1 4,-1 2,0 3,0 5,1zm8 -16c0,7 -6,12 -13,12 -7,0 -12,-6 -13,-13 0,0 0,0 0,0 0,-7 6,-13 13,-13 7,0 13,6 13,13 0,0 0,1 0,1z"/>
  <path class="fil0" d="M55 32c6,0 11,-5 11,-11 0,0 0,0 0,0 0,-6 -5,-10 -11,-10 -5,0 -10,4 -10,10 0,0 0,0 0,0 0,6 5,11 10,11zm6 -12l0 0zm-1 0l-6 5c0,0 0,0 -1,0 0,0 0,0 -1,0l-1 -3c-1,0 -1,-1 -1,-1 0,0 0,-1 1,-1 0,0 0,0 1,0 0,0 0,0 0,0 0,0 0,0 0,0l2 2 3 -2 2 -2c0,0 1,0 1,0 1,0 1,0 1,1 0,0 0,1 0,1l-1 0z"/>
 </g>
</svg>
