<svg width="37" height="37" viewBox="0 0 37 37" fill="none" xmlns="http://www.w3.org/2000/svg">
<g clip-path="url(#clip0)">
<path d="M23.921 20.528C23.921 23.745 21.304 26.362 18.087 26.362C14.87 26.362 12.254 23.745 12.254 20.528C12.254 17.311 14.87 14.694 18.087 14.694C21.304 14.694 23.921 17.312 23.921 20.528ZM36.174 12.244V28.814C36.174 31.023 34.383 32.814 32.174 32.814H4C1.791 32.814 0 31.023 0 28.814V12.244C0 10.035 1.791 8.24399 4 8.24399H8.92V6.85999C8.92 4.92699 10.486 3.35999 12.42 3.35999H23.754C25.688 3.35999 27.254 4.92699 27.254 6.85999V8.24299H32.174C34.383 8.24399 36.174 10.035 36.174 12.244ZM26.921 20.528C26.921 15.657 22.958 11.694 18.087 11.694C13.217 11.694 9.254 15.657 9.254 20.528C9.254 25.399 13.217 29.362 18.087 29.362C22.958 29.362 26.921 25.399 26.921 20.528Z" fill="white"/>
</g>
<defs>
<clipPath id="clip0">
<rect width="36.174" height="36.174" fill="white"/>
</clipPath>
</defs>
</svg>
