<svg width="45" height="45" viewBox="0 0 45 45" fill="none" xmlns="http://www.w3.org/2000/svg">
<g clip-path="url(#clip0)">
<path d="M13.0081 33.3384C11.0421 33.238 11.0791 30.4727 13.008 30.3767C18.472 30.3957 32.8837 30.3818 38.5215 30.3858C40.0635 30.3858 41.3827 29.3364 41.7295 27.8341L44.9308 13.9716C45.1141 13.1778 44.9291 12.3563 44.4233 11.7178C43.9175 11.0793 43.1603 10.7079 42.3457 10.7079C40.0777 10.7079 20.826 10.6208 10.9653 10.5815L9.40226 4.78176C9.02703 3.39578 7.76223 2.42786 6.32639 2.42786H1.31906C0.590587 2.42786 0 3.01844 0 3.74692C0 4.47539 0.590587 5.06598 1.31906 5.06598H6.32639C6.57358 5.06598 6.79122 5.23262 6.85551 5.46979L12.8585 27.7422C11.803 27.7805 10.8199 28.2099 10.0744 28.9663C9.29102 29.7612 8.87033 30.8135 8.88976 31.9293C8.92863 34.1609 10.7761 35.9765 13.0081 35.9765H14.9315C14.6456 36.5766 14.4851 37.2474 14.4851 37.9552C14.4851 40.5009 16.5562 42.572 19.102 42.572C21.6478 42.572 23.7189 40.5009 23.7189 37.9552C23.7189 37.2473 23.5583 36.5766 23.2724 35.9765H31.6015C31.3159 36.5764 31.1554 37.2469 31.1554 37.9545C31.1554 40.5002 33.2266 42.5713 35.7723 42.5713C38.3181 42.5713 40.3893 40.5002 40.3893 37.9545C40.3893 37.2194 40.2157 36.5243 39.9088 35.9068C40.4308 35.731 40.8071 35.2387 40.8071 34.6575C40.8071 33.929 40.2166 33.3384 39.4881 33.3384H13.0081ZM21.0807 37.9552C21.0807 39.0464 20.1931 39.934 19.1019 39.934C18.0108 39.934 17.1232 39.0464 17.1232 37.9552C17.1232 36.8647 18.0099 35.9774 19.1003 35.9766H19.1036C20.1939 35.9774 21.0807 36.8647 21.0807 37.9552ZM35.7724 39.9333C34.6813 39.9333 33.7936 39.0456 33.7936 37.9545C33.7936 36.8742 34.664 35.9939 35.7403 35.9766H35.8046C36.8809 35.9939 37.7513 36.8742 37.7513 37.9545C37.7512 39.0456 36.8635 39.9333 35.7724 39.9333ZM42.3554 13.3557C42.3632 13.3656 42.3621 13.3703 42.3604 13.3778L41.0115 19.2191H36.4439L37.2217 13.3252L42.3351 13.3458C42.343 13.346 42.3476 13.346 42.3554 13.3557ZM28.7563 27.7476V21.8572H33.4347L32.6574 27.7476H28.7563ZM22.2153 27.7476L21.4316 21.8572H26.1182V27.7476H22.2153ZM16.143 27.7476H16.1389C15.8174 27.7475 15.5341 27.5306 15.4505 27.2217L14.0046 21.8572H18.7702L19.5539 27.7476H16.143ZM21.0806 19.2191L20.2873 13.2571L26.1181 13.2806V19.2191H21.0806ZM28.7563 19.2191V13.2912L34.5621 13.3146L33.7829 19.2191H28.7563ZM17.6245 13.2463L18.4192 19.2191H13.2936L11.6773 13.2223L17.6245 13.2463ZM38.5215 27.7476H35.3183L36.0956 21.8572H40.4022L39.159 27.2404C39.0901 27.5391 38.8279 27.7476 38.5215 27.7476Z" fill="white"/>
</g>
<defs>
<clipPath id="clip0">
<rect width="45" height="45" fill="white"/>
</clipPath>
</defs>
</svg>
