<svg width="36" height="36" viewBox="0 0 36 36" fill="none" xmlns="http://www.w3.org/2000/svg">
<path d="M33.4299 18.0828C33.262 17.6239 32.7541 17.3885 32.2977 17.5569L24.0278 20.5861L30.7127 13.9064C30.8782 13.7418 30.9706 13.5167 30.9706 13.2821C30.9706 13.0484 30.8781 12.8237 30.7127 12.6576L25.5417 7.48367C25.1968 7.13886 24.6382 7.13886 24.2934 7.48367L17.737 14.0355L21.4142 5.31281C21.505 5.09704 21.5062 4.8539 21.4188 4.63726C21.3303 4.42061 21.1596 4.24766 20.9435 4.1571L14.2038 1.31526C13.7541 1.12357 13.2363 1.33716 13.0472 1.78561L9.41575 10.4003V1.22819C9.41575 0.740834 9.02038 0.345459 8.53303 0.345459H0.882727C0.395375 0.345459 0 0.740834 0 1.22819V34.7718C0 35.2592 0.395375 35.6545 0.882727 35.6545H8.53303C8.64081 35.6545 8.74314 35.6321 8.83849 35.5971C8.93396 35.6315 9.03335 35.6545 9.13677 35.6545C9.23823 35.6545 9.34045 35.6373 9.44049 35.6005L35.4206 26.0825C35.8779 25.9147 36.1136 25.4078 35.9457 24.9503L33.4299 18.0828ZM5.21822 33.8891H1.76545V32.4329V31.4754V30.8202V28.5485V2.11091H7.6503V14.588V16.8601V19.1327V24.116V25.363V26.586V26.6113V32.08V32.9984V33.2795V33.3288V33.8892H7.49076H6.96177H5.21822V33.8891ZM19.4447 5.44065L14.4268 17.3437L13.5176 19.5L12.6082 21.6562L11.0559 25.3382L10.1182 27.5617L9.41575 29.23V27.8192V25.9394V24.847V23.5988V22.3517V14.9453L14.3313 3.2857L19.4447 5.44065ZM12.3847 26.7313L13.3223 24.5079L15.9191 18.3477L24.9164 9.35636L28.8399 13.2816L20.0851 22.031L17.1151 24.9986L10.2037 31.9052L12.3847 26.7313ZM11.7209 32.8851L21.0573 23.555L32.0759 19.5184L33.9844 24.7286L11.7209 32.8851Z" fill="white"/>
<path d="M4.70789 30.2599C4.66909 30.2599 4.63258 30.2685 4.59498 30.2709C4.26423 30.3008 3.97173 30.4531 3.76217 30.6869C3.62398 30.841 3.52198 31.0283 3.47141 31.2363C3.44842 31.3329 3.43262 31.4317 3.43262 31.5352C3.43262 31.8156 3.52569 32.0719 3.67858 32.2822C3.91038 32.6005 4.28341 32.8098 4.70789 32.8098C4.76957 32.8098 4.82852 32.8006 4.88803 32.7914C5.1426 32.7552 5.37211 32.6448 5.55465 32.481C5.64281 32.4016 5.72062 32.3121 5.78416 32.2108C5.88878 32.0453 5.95253 31.8534 5.97062 31.6476C5.97411 31.6097 5.98185 31.5729 5.98185 31.5344C5.98315 30.8305 5.41221 30.2599 4.70789 30.2599Z" fill="white"/>
</svg>
