<svg width="36" height="27" viewBox="0 0 36 27" fill="none" xmlns="http://www.w3.org/2000/svg">
<path d="M32.625 0H3.375C1.47656 0 0 1.54688 0 3.375V23.625C0 25.5234 1.47656 27 3.375 27H32.625C34.4531 27 36 25.5234 36 23.625V3.375C36 1.54688 34.4531 0 32.625 0ZM32.625 3.375V6.25781C31.0078 7.59375 28.4766 9.5625 23.1328 13.7812C21.9375 14.6953 19.6172 16.9453 18 16.875C16.3125 16.9453 13.9922 14.6953 12.7969 13.7812C7.45312 9.5625 4.92188 7.59375 3.375 6.25781V3.375H32.625ZM3.375 23.625V10.6172C4.92188 11.8828 7.24219 13.7109 10.6875 16.4531C12.2344 17.6484 14.9766 20.3203 18 20.25C20.9531 20.3203 23.625 17.6484 25.2422 16.4531C28.6875 13.7109 31.0078 11.8828 32.625 10.6172V23.625H3.375Z" fill="white"/>
</svg>
